<?xml version="1.0" encoding="UTF-8" standalone="no"?>
<!DOCTYPE svg PUBLIC "-//W3C//DTD SVG 1.1//EN"
 "http://www.w3.org/Graphics/SVG/1.1/DTD/svg11.dtd">
<!-- Generated by graphviz version 14.1.5 (0)
 -->
<!-- Title: beamforming_pipeline Pages: 1 -->
<svg width="801pt" height="44pt"
 viewBox="0.00 0.00 801.00 44.00" xmlns="http://www.w3.org/2000/svg" xmlns:xlink="http://www.w3.org/1999/xlink">
<g id="graph0" class="graph" transform="scale(1 1) rotate(0) translate(4 40)">
<title>beamforming_pipeline</title>
<!-- SM -->
<g id="node1" class="node">
<title>SM</title>
<polygon fill="white" stroke="black" stroke-width="0.5" points="127,-36 0,-36 0,0 127,0 127,-36"/>
<text xml:space="preserve" text-anchor="middle" x="63.5" y="-11.78" font-family="Vera Sans, Dejavu Sans, Liberation Sans, Arial, Helvetica, sans" font-size="18.00">SourceMixer</text>
</g>
<!-- FF -->
<g id="node2" class="node">
<title>FF</title>
<polygon fill="white" stroke="black" stroke-width="0.5" points="295.25,-36 163,-36 163,0 295.25,0 295.25,-36"/>
<text xml:space="preserve" text-anchor="middle" x="229.12" y="-11.78" font-family="Vera Sans, Dejavu Sans, Liberation Sans, Arial, Helvetica, sans" font-size="18.00">FiltFiltOctave</text>
</g>
<!-- SM&#45;&gt;FF -->
<g id="edge1" class="edge">
<title>SM&#45;&gt;FF</title>
<path fill="none" stroke="black" d="M127.29,-18C135.13,-18 143.22,-18 151.25,-18"/>
<polygon fill="black" stroke="black" points="151,-21.5 161,-18 151,-14.5 151,-21.5"/>
</g>
<!-- BT -->
<g id="node3" class="node">
<title>BT</title>
<polygon fill="white" stroke="black" stroke-width="0.5" points="558,-36 331.25,-36 331.25,0 558,0 558,-36"/>
<text xml:space="preserve" text-anchor="middle" x="444.62" y="-11.78" font-family="Vera Sans, Dejavu Sans, Liberation Sans, Arial, Helvetica, sans" font-size="18.00">BeamformerTimeSqTraj</text>
</g>
<!-- FF&#45;&gt;BT -->
<g id="edge2" class="edge">
<title>FF&#45;&gt;BT</title>
<path fill="none" stroke="black" d="M295.63,-18C303.39,-18 311.48,-18 319.72,-18"/>
<polygon fill="black" stroke="black" points="319.5,-21.5 329.5,-18 319.5,-14.5 319.5,-21.5"/>
</g>
<!-- AVG -->
<g id="node4" class="node">
<title>AVG</title>
<polygon fill="white" stroke="black" stroke-width="0.5" points="684.25,-36 594,-36 594,0 684.25,0 684.25,-36"/>
<text xml:space="preserve" text-anchor="middle" x="639.12" y="-11.78" font-family="Vera Sans, Dejavu Sans, Liberation Sans, Arial, Helvetica, sans" font-size="18.00">Average</text>
</g>
<!-- BT&#45;&gt;AVG -->
<g id="edge3" class="edge">
<title>BT&#45;&gt;AVG</title>
<path fill="none" stroke="black" d="M558.44,-18C566.72,-18 574.84,-18 582.53,-18"/>
<polygon fill="black" stroke="black" points="582.32,-21.5 592.32,-18 582.32,-14.5 582.32,-21.5"/>
</g>
<!-- CACHE -->
<g id="node5" class="node">
<title>CACHE</title>
<polygon fill="white" stroke="black" stroke-width="0.5" points="792.5,-36 720.25,-36 720.25,0 792.5,0 792.5,-36"/>
<text xml:space="preserve" text-anchor="middle" x="756.38" y="-11.78" font-family="Vera Sans, Dejavu Sans, Liberation Sans, Arial, Helvetica, sans" font-size="18.00">Cache</text>
</g>
<!-- AVG&#45;&gt;CACHE -->
<g id="edge4" class="edge">
<title>AVG&#45;&gt;CACHE</title>
<path fill="none" stroke="black" d="M684.68,-18C692.51,-18 700.68,-18 708.57,-18"/>
<polygon fill="black" stroke="black" points="708.35,-21.5 718.35,-18 708.35,-14.5 708.35,-21.5"/>
</g>
</g>
</svg>
