<?xml version="1.0" encoding="UTF-8" standalone="no"?>
<!DOCTYPE svg PUBLIC "-//W3C//DTD SVG 1.1//EN"
 "http://www.w3.org/Graphics/SVG/1.1/DTD/svg11.dtd">
<!-- Generated by graphviz version 2.43.0 (0)
 -->
<!-- Title: beamforming_pipeline Pages: 1 -->
<svg width="804pt" height="44pt"
 viewBox="0.00 0.00 804.00 44.00" xmlns="http://www.w3.org/2000/svg" xmlns:xlink="http://www.w3.org/1999/xlink">
<g id="graph0" class="graph" transform="scale(1 1) rotate(0) translate(4 40)">
<title>beamforming_pipeline</title>
<!-- SM -->
<g id="node1" class="node">
<title>SM</title>
<polygon fill="white" stroke="black" stroke-width="0.5" points="128,-36 0,-36 0,0 128,0 128,-36"/>
<text text-anchor="middle" x="64" y="-13.6" font-family="Vera Sans, Dejavu Sans, Liberation Sans, Arial, Helvetica, sans" font-size="18.00">SourceMixer</text>
</g>
<!-- FF -->
<g id="node2" class="node">
<title>FF</title>
<polygon fill="white" stroke="black" stroke-width="0.5" points="297,-36 164,-36 164,0 297,0 297,-36"/>
<text text-anchor="middle" x="230.5" y="-13.6" font-family="Vera Sans, Dejavu Sans, Liberation Sans, Arial, Helvetica, sans" font-size="18.00">FiltFiltOctave</text>
</g>
<!-- SM&#45;&gt;FF -->
<g id="edge1" class="edge">
<title>SM&#45;&gt;FF</title>
<path fill="none" stroke="black" d="M128.13,-18C136.53,-18 145.21,-18 153.8,-18"/>
<polygon fill="black" stroke="black" points="153.81,-21.5 163.81,-18 153.81,-14.5 153.81,-21.5"/>
</g>
<!-- BT -->
<g id="node3" class="node">
<title>BT</title>
<polygon fill="white" stroke="black" stroke-width="0.5" points="560,-36 333,-36 333,0 560,0 560,-36"/>
<text text-anchor="middle" x="446.5" y="-13.6" font-family="Vera Sans, Dejavu Sans, Liberation Sans, Arial, Helvetica, sans" font-size="18.00">BeamformerTimeSqTraj</text>
</g>
<!-- FF&#45;&gt;BT -->
<g id="edge2" class="edge">
<title>FF&#45;&gt;BT</title>
<path fill="none" stroke="black" d="M297.16,-18C305.29,-18 313.79,-18 322.43,-18"/>
<polygon fill="black" stroke="black" points="322.63,-21.5 332.63,-18 322.63,-14.5 322.63,-21.5"/>
</g>
<!-- AVG -->
<g id="node4" class="node">
<title>AVG</title>
<polygon fill="white" stroke="black" stroke-width="0.5" points="687,-36 596,-36 596,0 687,0 687,-36"/>
<text text-anchor="middle" x="641.5" y="-13.6" font-family="Vera Sans, Dejavu Sans, Liberation Sans, Arial, Helvetica, sans" font-size="18.00">Average</text>
</g>
<!-- BT&#45;&gt;AVG -->
<g id="edge3" class="edge">
<title>BT&#45;&gt;AVG</title>
<path fill="none" stroke="black" d="M560.05,-18C568.89,-18 577.54,-18 585.7,-18"/>
<polygon fill="black" stroke="black" points="585.76,-21.5 595.76,-18 585.76,-14.5 585.76,-21.5"/>
</g>
<!-- CACHE -->
<g id="node5" class="node">
<title>CACHE</title>
<polygon fill="white" stroke="black" stroke-width="0.5" points="796,-36 723,-36 723,0 796,0 796,-36"/>
<text text-anchor="middle" x="759.5" y="-13.6" font-family="Vera Sans, Dejavu Sans, Liberation Sans, Arial, Helvetica, sans" font-size="18.00">Cache</text>
</g>
<!-- AVG&#45;&gt;CACHE -->
<g id="edge4" class="edge">
<title>AVG&#45;&gt;CACHE</title>
<path fill="none" stroke="black" d="M687.02,-18C695.47,-18 704.32,-18 712.8,-18"/>
<polygon fill="black" stroke="black" points="712.92,-21.5 722.92,-18 712.92,-14.5 712.92,-21.5"/>
</g>
</g>
</svg>
