<?xml version="1.0" encoding="UTF-8" standalone="no"?>
<!DOCTYPE svg PUBLIC "-//W3C//DTD SVG 1.1//EN"
 "http://www.w3.org/Graphics/SVG/1.1/DTD/svg11.dtd">
<!-- Generated by graphviz version 2.43.0 (0)
 -->
<!-- Title: beamforming_pipeline Pages: 1 -->
<svg width="772pt" height="44pt"
 viewBox="0.00 0.00 772.00 44.00" xmlns="http://www.w3.org/2000/svg" xmlns:xlink="http://www.w3.org/1999/xlink">
<g id="graph0" class="graph" transform="scale(1 1) rotate(0) translate(4 40)">
<title>beamforming_pipeline</title>
<!-- SM -->
<g id="node1" class="node">
<title>SM</title>
<polygon fill="white" stroke="black" stroke-width="0.5" points="128,-36 0,-36 0,0 128,0 128,-36"/>
<text text-anchor="middle" x="64" y="-13.6" font-family="Vera Sans, Dejavu Sans, Liberation Sans, Arial, Helvetica, sans" font-size="18.00">SourceMixer</text>
</g>
<!-- FF -->
<g id="node2" class="node">
<title>FF</title>
<polygon fill="white" stroke="black" stroke-width="0.5" points="297,-36 164,-36 164,0 297,0 297,-36"/>
<text text-anchor="middle" x="230.5" y="-13.6" font-family="Vera Sans, Dejavu Sans, Liberation Sans, Arial, Helvetica, sans" font-size="18.00">FiltFiltOctave</text>
</g>
<!-- SM&#45;&gt;FF -->
<g id="edge1" class="edge">
<title>SM&#45;&gt;FF</title>
<path fill="none" stroke="black" d="M128.13,-18C136.53,-18 145.21,-18 153.8,-18"/>
<polygon fill="black" stroke="black" points="153.81,-21.5 163.81,-18 153.81,-14.5 153.81,-21.5"/>
</g>
<!-- BT -->
<g id="node3" class="node">
<title>BT</title>
<polygon fill="white" stroke="black" stroke-width="0.5" points="528,-36 333,-36 333,0 528,0 528,-36"/>
<text text-anchor="middle" x="430.5" y="-13.6" font-family="Vera Sans, Dejavu Sans, Liberation Sans, Arial, Helvetica, sans" font-size="18.00">BeamformerTimeSq</text>
</g>
<!-- FF&#45;&gt;BT -->
<g id="edge2" class="edge">
<title>FF&#45;&gt;BT</title>
<path fill="none" stroke="black" d="M297.16,-18C305.41,-18 314.01,-18 322.7,-18"/>
<polygon fill="black" stroke="black" points="322.91,-21.5 332.91,-18 322.91,-14.5 322.91,-21.5"/>
</g>
<!-- AVG -->
<g id="node4" class="node">
<title>AVG</title>
<polygon fill="white" stroke="black" stroke-width="0.5" points="655,-36 564,-36 564,0 655,0 655,-36"/>
<text text-anchor="middle" x="609.5" y="-13.6" font-family="Vera Sans, Dejavu Sans, Liberation Sans, Arial, Helvetica, sans" font-size="18.00">Average</text>
</g>
<!-- BT&#45;&gt;AVG -->
<g id="edge3" class="edge">
<title>BT&#45;&gt;AVG</title>
<path fill="none" stroke="black" d="M528.03,-18C536.79,-18 545.44,-18 553.64,-18"/>
<polygon fill="black" stroke="black" points="553.76,-21.5 563.76,-18 553.76,-14.5 553.76,-21.5"/>
</g>
<!-- CACHE -->
<g id="node5" class="node">
<title>CACHE</title>
<polygon fill="white" stroke="black" stroke-width="0.5" points="764,-36 691,-36 691,0 764,0 764,-36"/>
<text text-anchor="middle" x="727.5" y="-13.6" font-family="Vera Sans, Dejavu Sans, Liberation Sans, Arial, Helvetica, sans" font-size="18.00">Cache</text>
</g>
<!-- AVG&#45;&gt;CACHE -->
<g id="edge4" class="edge">
<title>AVG&#45;&gt;CACHE</title>
<path fill="none" stroke="black" d="M655.02,-18C663.47,-18 672.32,-18 680.8,-18"/>
<polygon fill="black" stroke="black" points="680.92,-21.5 690.92,-18 680.92,-14.5 680.92,-21.5"/>
</g>
</g>
</svg>
