<?xml version="1.0" encoding="UTF-8" standalone="no"?>
<!DOCTYPE svg PUBLIC "-//W3C//DTD SVG 1.1//EN"
 "http://www.w3.org/Graphics/SVG/1.1/DTD/svg11.dtd">
<!-- Generated by graphviz version 14.1.5 (0)
 -->
<!-- Title: beamforming_pipeline Pages: 1 -->
<svg width="768pt" height="44pt"
 viewBox="0.00 0.00 768.00 44.00" xmlns="http://www.w3.org/2000/svg" xmlns:xlink="http://www.w3.org/1999/xlink">
<g id="graph0" class="graph" transform="scale(1 1) rotate(0) translate(4 40)">
<title>beamforming_pipeline</title>
<!-- SM -->
<g id="node1" class="node">
<title>SM</title>
<polygon fill="white" stroke="black" stroke-width="0.5" points="127,-36 0,-36 0,0 127,0 127,-36"/>
<text xml:space="preserve" text-anchor="middle" x="63.5" y="-11.78" font-family="Vera Sans, Dejavu Sans, Liberation Sans, Arial, Helvetica, sans" font-size="18.00">SourceMixer</text>
</g>
<!-- FF -->
<g id="node2" class="node">
<title>FF</title>
<polygon fill="white" stroke="black" stroke-width="0.5" points="295.25,-36 163,-36 163,0 295.25,0 295.25,-36"/>
<text xml:space="preserve" text-anchor="middle" x="229.12" y="-11.78" font-family="Vera Sans, Dejavu Sans, Liberation Sans, Arial, Helvetica, sans" font-size="18.00">FiltFiltOctave</text>
</g>
<!-- SM&#45;&gt;FF -->
<g id="edge1" class="edge">
<title>SM&#45;&gt;FF</title>
<path fill="none" stroke="black" d="M127.29,-18C135.13,-18 143.22,-18 151.25,-18"/>
<polygon fill="black" stroke="black" points="151,-21.5 161,-18 151,-14.5 151,-21.5"/>
</g>
<!-- BT -->
<g id="node3" class="node">
<title>BT</title>
<polygon fill="white" stroke="black" stroke-width="0.5" points="525.75,-36 331.25,-36 331.25,0 525.75,0 525.75,-36"/>
<text xml:space="preserve" text-anchor="middle" x="428.5" y="-11.78" font-family="Vera Sans, Dejavu Sans, Liberation Sans, Arial, Helvetica, sans" font-size="18.00">BeamformerTimeSq</text>
</g>
<!-- FF&#45;&gt;BT -->
<g id="edge2" class="edge">
<title>FF&#45;&gt;BT</title>
<path fill="none" stroke="black" d="M295.57,-18C303.28,-18 311.29,-18 319.38,-18"/>
<polygon fill="black" stroke="black" points="319.35,-21.5 329.35,-18 319.35,-14.5 319.35,-21.5"/>
</g>
<!-- AVG -->
<g id="node4" class="node">
<title>AVG</title>
<polygon fill="white" stroke="black" stroke-width="0.5" points="652,-36 561.75,-36 561.75,0 652,0 652,-36"/>
<text xml:space="preserve" text-anchor="middle" x="606.88" y="-11.78" font-family="Vera Sans, Dejavu Sans, Liberation Sans, Arial, Helvetica, sans" font-size="18.00">Average</text>
</g>
<!-- BT&#45;&gt;AVG -->
<g id="edge3" class="edge">
<title>BT&#45;&gt;AVG</title>
<path fill="none" stroke="black" d="M526.2,-18C534.41,-18 542.51,-18 550.23,-18"/>
<polygon fill="black" stroke="black" points="550.1,-21.5 560.1,-18 550.1,-14.5 550.1,-21.5"/>
</g>
<!-- CACHE -->
<g id="node5" class="node">
<title>CACHE</title>
<polygon fill="white" stroke="black" stroke-width="0.5" points="760.25,-36 688,-36 688,0 760.25,0 760.25,-36"/>
<text xml:space="preserve" text-anchor="middle" x="724.12" y="-11.78" font-family="Vera Sans, Dejavu Sans, Liberation Sans, Arial, Helvetica, sans" font-size="18.00">Cache</text>
</g>
<!-- AVG&#45;&gt;CACHE -->
<g id="edge4" class="edge">
<title>AVG&#45;&gt;CACHE</title>
<path fill="none" stroke="black" d="M652.43,-18C660.26,-18 668.43,-18 676.32,-18"/>
<polygon fill="black" stroke="black" points="676.1,-21.5 686.1,-18 676.1,-14.5 676.1,-21.5"/>
</g>
</g>
</svg>
